<?xml version="1.0" standalone="no"?>
<svg viewBox="0 0 200 200" xmlns="http://www.w3.org/2000/svg">
  <path fill="#F2F3F5" d="M30.8,-50.5C43,-46.3,58.1,-44.3,63.2,-36.2C68.4,-28.2,63.7,-14.1,65.6,1.1C67.5,16.3,76.1,32.6,72.9,44.2C69.8,55.8,55,62.7,40.9,68.8C26.8,74.8,13.4,79.9,-0.6,80.9C-14.6,81.9,-29.1,78.8,-39.1,70.4C-49,61.9,-54.4,48.2,-61.4,35.6C-68.3,23,-76.9,11.5,-75.9,0.5C-75,-10.4,-64.6,-20.8,-58.5,-35C-52.5,-49.2,-50.8,-67.1,-41.8,-73.2C-32.7,-79.2,-16.4,-73.3,-3.5,-67.2C9.3,-61.1,18.6,-54.7,30.8,-50.5Z" transform="translate(100 100)" />
</svg>
